HIERARCHY
ROOT Hips
{
 OFFSET 0.000000 0.000000 0.000000
 CHANNELS 6 Xposition Yposition Zposition Yrotation Xrotation Zrotation
 JOINT Chest
 {
  OFFSET 0.000000 9.585900 0.002600
  CHANNELS 3 Yrotation Xrotation Zrotation
  JOINT Chest2
  {
   OFFSET 0.000000 9.601200 -0.005300
   CHANNELS 3 Yrotation Xrotation Zrotation
   JOINT Chest3
   {
    OFFSET 0.000000 9.561800 0.000000
    CHANNELS 3 Yrotation Xrotation Zrotation
    JOINT Chest4
    {
     OFFSET 0.000000 9.552100 0.000000
     CHANNELS 3 Yrotation Xrotation Zrotation
     JOINT Neck
     {
      OFFSET 0.000000 14.453000 0.000000
      CHANNELS 3 Yrotation Xrotation Zrotation
      JOINT Head
      {
       OFFSET 0.000000 8.936500 -0.011300
       CHANNELS 3 Yrotation Xrotation Zrotation
       End Site
       {
        OFFSET 0.000000 17.073600 -0.006000
       }
      }
     }
     JOINT RightCollar
     {
      OFFSET -2.921100 9.558500 0.000000
      CHANNELS 3 Yrotation Xrotation Zrotation
      JOINT RightShoulder
      {
       OFFSET -13.519700 0.000000 0.000000
       CHANNELS 3 Yrotation Xrotation Zrotation
       JOINT RightElbow
       {
        OFFSET 0.000000 -29.696600 0.000000
        CHANNELS 3 Yrotation Xrotation Zrotation
        JOINT RightWrist
        {
         OFFSET 0.000000 -24.004700 0.000000
         CHANNELS 3 Yrotation Xrotation Zrotation
         End Site
         {
          OFFSET 0.000000 -17.728500 0.000000
         }
        }
       }
      }
     }
     JOINT LeftCollar
     {
      OFFSET 2.921100 9.558500 0.000000
      CHANNELS 3 Yrotation Xrotation Zrotation
      JOINT LeftShoulder
      {
       OFFSET 13.519700 0.000000 0.000000
       CHANNELS 3 Yrotation Xrotation Zrotation
       JOINT LeftElbow
       {
        OFFSET 0.000000 -29.696600 0.000000
        CHANNELS 3 Yrotation Xrotation Zrotation
        JOINT LeftWrist
        {
         OFFSET 0.000000 -24.004700 0.000000
         CHANNELS 3 Yrotation Xrotation Zrotation
         End Site
         {
          OFFSET 0.000000 -17.728500 0.000000
         }
        }
       }
      }
     }
    }
   }
  }
 }
 JOINT RightHip
 {
  OFFSET -7.771700 -0.012900 -0.001300
  CHANNELS 3 Yrotation Xrotation Zrotation
  JOINT RightKnee
  {
   OFFSET 0.000000 -40.869800 0.001200
   CHANNELS 3 Yrotation Xrotation Zrotation
   JOINT RightAnkle
   {
    OFFSET 0.000000 -39.717900 0.002100
    CHANNELS 3 Yrotation Xrotation Zrotation
    JOINT RightToe
    {
     OFFSET 0.000000 -4.965400 11.033500
     CHANNELS 3 Yrotation Xrotation Zrotation
     End Site
     {
      OFFSET 0.000000 -1.423100 5.872300
     }
    }
   }
  }
 }
 JOINT LeftHip
 {
  OFFSET 7.771700 -0.012900 -0.001300
  CHANNELS 3 Yrotation Xrotation Zrotation
  JOINT LeftKnee
  {
   OFFSET 0.000000 -40.869800 0.001200
   CHANNELS 3 Yrotation Xrotation Zrotation
   JOINT LeftAnkle
   {
    OFFSET 0.000000 -39.717900 0.002100
    CHANNELS 3 Yrotation Xrotation Zrotation
    JOINT LeftToe
    {
     OFFSET 0.000000 -4.965400 11.033500
     CHANNELS 3 Yrotation Xrotation Zrotation
     End Site
     {
      OFFSET 0.000000 -1.423100 5.872300
     }
    }
   }
  }
 }
}
MOTION
Frames: 6
Frame Time: 0.008333
-21.110208 52.053532 30.076275 -178.222592 -38.558138 -1.055649 2.958028 26.661500 -2.632835 0.528787 4.498238 -0.371066 0.883785 7.196616 -0.653926 2.497052 21.734538 -1.684273 -6.180415 16.340755 -8.154228 -4.866183 -8.233764 -7.492779 12.889883 12.591099 15.508172 32.190248 -10.384111 -35.876779 -9.439326 -29.607894 -17.008050 -7.456369 -11.081607 18.380983 -7.814177 14.621296 -16.906876 -29.906074 -0.300532 37.812824 -63.205260 -48.749188 112.214568 8.521152 -3.235075 -2.194449 -8.661941 -44.080813 -0.523504 -64.463232 82.465390 -73.888228 -6.012939 -12.922861 9.777039 0.479953 -0.335074 0.116665 3.649636 -42.031711 -4.594194 32.422170 83.119512 37.643291 -2.487490 -11.091588 0.017426 0.135082 0.522411 0.065881
-21.107112 52.049113 30.071183 -178.261508 -38.559826 -1.025929 2.940518 26.622598 -2.605571 0.524092 4.485983 -0.365978 0.875655 7.178218 -0.645832 2.478995 21.714162 -1.665051 -6.195124 16.138028 -8.077953 -4.898225 -8.459663 -7.403717 12.831995 12.555521 15.502890 32.155677 -10.294871 -35.766298 -9.350714 -29.681979 -17.079153 -7.507505 -11.077361 18.411929 -7.778233 14.599904 -16.887521 -29.866309 -0.306492 37.690749 -64.040406 -48.034270 113.513791 8.246598 -3.827018 -1.224316 -8.647403 -44.093943 -0.528835 -64.592776 82.479384 -74.013624 -6.012900 -12.965751 9.770160 0.484867 -0.403833 0.135196 3.647771 -42.031412 -4.601957 32.577350 83.118603 37.792843 -2.462851 -11.098520 0.005918 0.116499 0.522005 0.052925
-21.102960 52.043186 30.067442 -178.302187 -38.547526 -1.002325 2.894083 26.540639 -2.545991 0.544952 4.502456 -0.401218 0.867855 7.158431 -0.637558 2.462205 21.691962 -1.645306 -6.205196 15.941271 -8.001891 -4.925184 -8.678628 -7.316056 12.771271 12.524938 15.498222 32.127362 -10.194912 -35.653191 -9.176529 -29.757738 -17.212796 -7.535207 -11.068935 18.519570 -7.744327 14.578961 -16.871072 -29.845593 -0.299038 37.546147 -64.812409 -47.339569 114.772978 7.956717 -4.383281 -0.329653 -8.633255 -44.115765 -0.525810 -64.637456 82.498891 -74.051955 -6.020552 -13.002251 9.776211 0.483832 -0.418969 0.127923 3.664476 -42.046979 -4.610711 32.675326 83.124705 37.901393 -2.448659 -11.107930 -0.007150 0.117283 0.522994 0.046523
-21.096122 52.036463 30.064354 -178.369115 -38.527293 -0.980428 2.894367 26.473207 -2.486279 0.550473 4.497634 -0.408356 0.871374 7.154735 -0.646913 2.443099 21.651021 -1.604367 -6.210017 15.749677 -7.925771 -4.946544 -8.891621 -7.229651 12.706018 12.497265 15.493523 32.092519 -10.091586 -35.533284 -8.898266 -29.839250 -17.410567 -7.540838 -11.058480 18.683618 -7.713177 14.556506 -16.858677 -29.826106 -0.292268 37.402765 -65.521287 -46.645817 115.955848 7.671644 -4.882010 0.503041 -8.613407 -44.141892 -0.497976 -64.704698 82.498574 -74.114292 -5.974923 -13.056795 9.797324 0.423003 -0.461588 0.117134 3.688232 -42.071875 -4.599981 32.780216 83.131251 38.021092 -2.414939 -11.100909 -0.019661 0.098157 0.507448 0.034739
-21.094838 52.030831 30.059762 -178.442805 -38.516808 -0.923899 2.899774 26.428698 -2.464534 0.545647 4.483351 -0.402281 0.864050 7.133567 -0.637595 2.428495 21.627067 -1.581138 -6.210071 15.564379 -7.849808 -4.962704 -9.097323 -7.144603 12.631964 12.473116 15.486604 32.038421 -9.993060 -35.406322 -8.504311 -29.929380 -17.668748 -7.524611 -11.048928 18.883443 -7.686749 14.532164 -16.852260 -29.744666 -0.357248 37.336378 -66.214081 -45.998068 116.995317 7.405386 -5.307145 1.279579 -8.555174 -44.163819 -0.516388 -64.760817 82.498237 -74.162552 -5.975103 -13.077311 9.812159 0.410452 -0.509016 0.118569 3.745384 -42.081873 -4.631897 32.912324 83.132970 38.165631 -2.396693 -11.102902 -0.035876 0.077595 0.502077 0.035378
-21.093972 52.025183 30.055144 -178.478380 -38.503809 -0.890796 2.876997 26.383378 -2.439842 0.561544 4.491685 -0.428496 0.828926 7.072214 -0.575381 2.417382 21.620523 -1.575812 -6.205070 15.388046 -7.774123 -4.973252 -9.292890 -7.061004 12.550741 12.453521 15.476466 31.956002 -9.902964 -35.274312 -7.993826 -30.029727 -17.982870 -7.492700 -11.045453 19.101075 -7.663405 14.506640 -16.849270 -29.675307 -0.404298 37.248359 -66.851486 -45.341260 117.988624 7.162041 -5.660031 2.002180 -8.525821 -44.186041 -0.537175 -64.817506 82.502036 -74.209697 -5.980116 -13.087708 9.837245 0.423368 -0.522666 0.094331 3.778935 -42.095471 -4.656444 33.001178 83.133915 38.259323 -2.398321 -11.107234 -0.033365 0.079856 0.501444 0.028011
